<svg xmlns="http://www.w3.org/2000/svg" viewBox="0 0 1440 160" preserveAspectRatio="none"><path fill="#eef4f7" d="M0,64L60,58.7C120,53,240,43,360,37.3C480,32,600,32,720,42.7C840,53,960,75,1080,80C1200,85,1320,75,1380,69.3L1440,64L1440,160L1380,160C1320,160,1200,160,1080,160C960,160,840,160,720,160C600,160,480,160,360,160C240,160,120,160,60,160L0,160Z"/><path fill="#ffffff" d="M0,96L60,90.7C120,85,240,75,360,74.7C480,75,600,85,720,96C840,107,960,117,1080,112C1200,107,1320,85,1380,74.7L1440,64L1440,160L1380,160C1320,160,1200,160,1080,160C960,160,840,160,720,160C600,160,480,160,360,160C240,160,120,160,60,160L0,160Z"/></svg>